<svg xmlns="http://www.w3.org/2000/svg" xmlns:xlink="http://www.w3.org/1999/xlink" width="572" zoomAndPan="magnify" viewBox="0 0 428.88 131.999998" height="176" preserveAspectRatio="xMidYMid meet" version="1.0"><defs><g/><clipPath id="d91e5a38bf"><path d="M 0 0.0195312 L 428.761719 0.0195312 L 428.761719 131.980469 L 0 131.980469 Z M 0 0.0195312 " clip-rule="nonzero"/></clipPath></defs><g clip-path="url(#d91e5a38bf)"><path fill="#ffffff" d="M 0 0.0195312 L 428.878906 0.0195312 L 428.878906 131.980469 L 0 131.980469 Z M 0 0.0195312 " fill-opacity="1" fill-rule="nonzero"/><path fill="#ffffff" d="M 0 0.0195312 L 428.878906 0.0195312 L 428.878906 131.980469 L 0 131.980469 Z M 0 0.0195312 " fill-opacity="1" fill-rule="nonzero"/></g><g fill="#000000" fill-opacity="1"><g transform="translate(158.994764, 76.305726)"><g><path d="M 17.039062 -4.417969 C 17.039062 -8.601562 12.78125 -10.117188 9.453125 -8.601562 C 10.78125 -10.117188 13.074219 -10.835938 15.015625 -10.597656 C 15.734375 -10.515625 16.402344 -10.304688 16.960938 -9.957031 L 16.960938 -17.199219 C 13.660156 -18.503906 9.796875 -17.464844 9.929688 -13.074219 C 9.984375 -11.261719 9.425781 -8.945312 7.347656 -8.785156 L 7.347656 -17.332031 L 0.796875 -17.332031 L 0.796875 0 L 7.347656 0 L 7.347656 -7.882812 C 9.292969 -7.773438 10.410156 -6.152344 10.410156 -4.417969 L 10.410156 -0.0273438 L 17.039062 -0.0273438 Z M 17.039062 -4.417969 "/></g></g></g><g fill="#000000" fill-opacity="1"><g transform="translate(176.673834, 76.305726)"><g><path d="M 10.355469 -17.304688 L 10.355469 -8.757812 C 10.355469 -6.285156 7.320312 -6.308594 7.320312 -8.785156 L 7.320312 -17.304688 L 0.796875 -17.304688 L 0.796875 -6.390625 C 0.796875 -3.007812 1.542969 0 5.429688 0.105469 C 8.894531 0.160156 9.929688 -2.980469 10.011719 -6.042969 L 10.355469 -6.042969 L 10.355469 0 L 16.988281 0 L 16.988281 -17.304688 Z M 10.355469 -17.304688 "/></g></g></g><g fill="#000000" fill-opacity="1"><g transform="translate(194.459405, 76.305726)"><g><path d="M 0.773438 -17.332031 L 0.773438 -0.0273438 L 7.320312 -0.0273438 L 7.320312 -8.332031 C 9.453125 -8.332031 9.984375 -5.964844 9.929688 -4.285156 C 9.769531 0.105469 13.792969 0.933594 16.933594 -0.371094 L 16.933594 -7.828125 C 14.988281 -6.871094 11.796875 -6.417969 9.90625 -7.988281 L 10.039062 -8.253906 C 13.390625 -7.453125 17.519531 -8.867188 17.359375 -13.152344 C 17.253906 -15.257812 15.683594 -17.332031 12.726562 -17.332031 Z M 5.722656 -15.125 C 5.722656 -16.1875 6.734375 -16.828125 7.695312 -16.667969 C 11.476562 -16.027344 11.210938 -9.320312 7.320312 -9.050781 L 7.320312 -13.527344 C 6.441406 -13.527344 5.722656 -14.246094 5.722656 -15.125 Z M 5.722656 -15.125 "/></g></g></g><g fill="#000000" fill-opacity="1"><g transform="translate(212.031976, 76.305726)"><g><path d="M 0.398438 -8.519531 C 0.425781 -1.890625 4.953125 0.53125 10.96875 0.160156 L 10.96875 -0.1875 C 8.519531 -0.347656 7.242188 -4.417969 7.242188 -8.441406 C 7.242188 -10.941406 7.667969 -15.65625 10.625 -16.402344 L 10.757812 -16.109375 C 9.929688 -15.550781 9.34375 -14.671875 9.371094 -13.257812 C 9.453125 -8.734375 15.628906 -9.558594 15.628906 -9.558594 C 15.601562 -12.113281 15.628906 -14.722656 15.628906 -17.28125 L 10.410156 -17.28125 C 4.394531 -17.28125 0.371094 -15.308594 0.398438 -8.519531 Z M 15.65625 -7.667969 L 15.65625 -0.0273438 C 15.65625 -0.0273438 9.34375 0.773438 9.292969 -3.808594 C 9.210938 -7.933594 14.296875 -7.667969 15.65625 -7.667969 Z M 15.65625 -7.667969 "/></g></g><g transform="translate(228.353171, 76.305726)"><g><path d="M 0.746094 -17.304688 L 0.773438 0.0273438 L 7.136719 0.0273438 L 7.136719 -6.015625 C 7.136719 -8.332031 10.835938 -8.308594 10.835938 -5.964844 L 10.835938 0.0273438 L 17.199219 0.0273438 L 17.199219 -17.304688 L 10.808594 -17.304688 L 10.835938 -10.492188 C 9.320312 -10.941406 7.535156 -9.851562 7.480469 -8.015625 L 7.136719 -8.015625 C 7.136719 -11.101562 7.109375 -14.21875 7.109375 -17.304688 Z M 0.746094 -17.304688 "/></g></g><g transform="translate(246.351749, 76.305726)"><g><path d="M 0.796875 -17.332031 L 0.796875 -0.0273438 L 7.746094 -0.0273438 L 7.746094 -17.332031 Z M 0.796875 -17.332031 "/></g></g><g transform="translate(254.925036, 76.305726)"><g><path d="M 7.003906 -2.503906 C 7.003906 -6.257812 0.425781 -6.257812 0.425781 -2.503906 C 0.425781 1.226562 7.003906 1.226562 7.003906 -2.503906 Z M 7.003906 -2.503906 "/></g></g></g><g fill="#000000" fill-opacity="1"><g transform="translate(262.406689, 76.305726)"><g><path d="M 7.003906 -2.503906 C 7.003906 -6.257812 0.425781 -6.257812 0.425781 -2.503906 C 0.425781 1.226562 7.003906 1.226562 7.003906 -2.503906 Z M 7.003906 -2.503906 "/></g></g></g></svg>